<svg xmlns="http://www.w3.org/2000/svg" viewBox="0 0 64 64" fill="none">
  <defs>
    <linearGradient id="bg" x1="8" y1="6" x2="56" y2="58" gradientUnits="userSpaceOnUse">
      <stop stop-color="#0C6FA6"/>
      <stop offset="1" stop-color="#F5A623"/>
    </linearGradient>
    <linearGradient id="sheet" x1="20" y1="12" x2="45" y2="49" gradientUnits="userSpaceOnUse">
      <stop stop-color="#FFFFFF"/>
      <stop offset="1" stop-color="#EAF4FF"/>
    </linearGradient>
  </defs>

  <rect x="4" y="4" width="56" height="56" rx="16" fill="url(#bg)"/>
  <path d="M24 13h16l8 8v24a6 6 0 0 1-6 6H24a6 6 0 0 1-6-6V19a6 6 0 0 1 6-6Z" fill="url(#sheet)"/>
  <path d="M40 13v8h8" fill="none" stroke="#CCE3FF" stroke-width="2" stroke-linecap="round" stroke-linejoin="round"/>
  <rect x="22" y="33" width="20" height="14" rx="4" fill="#0D2B3E"/>
  <path d="M27 33v-3a5 5 0 1 1 10 0v3" stroke="#0D2B3E" stroke-width="4" stroke-linecap="round"/>
  <circle cx="32" cy="40" r="2.3" fill="#8ED3FF"/>
  <circle cx="49" cy="18" r="2" fill="#FFF3D2"/>
</svg>
